HIERARCHY
ROOT Hips
{
	OFFSET 0.000000 0.000000 0.000000
	CHANNELS 6 Xposition Yposition Zposition Zrotation Xrotation Yrotation
	JOINT Spine
	{
		OFFSET 0.000000 0.059888 0.006665
		CHANNELS 6 Xposition Yposition Zposition Zrotation Xrotation Yrotation
		JOINT Chest
		{
			OFFSET 0.000000 0.125681 -0.015911
			CHANNELS 6 Xposition Yposition Zposition Zrotation Xrotation Yrotation
			JOINT UpperChest
			{
				OFFSET 0.000000 0.122768 -0.001652
				CHANNELS 6 Xposition Yposition Zposition Zrotation Xrotation Yrotation
				JOINT Neck
				{
					OFFSET 0.000000 0.155865 0.008735
					CHANNELS 6 Xposition Yposition Zposition Zrotation Xrotation Yrotation
					JOINT Head
					{
						OFFSET 0.000000 0.095969 -0.000410
						CHANNELS 6 Xposition Yposition Zposition Zrotation Xrotation Yrotation
						JOINT LeftEye
						{
							OFFSET 0.015267 0.059218 0.021494
							CHANNELS 6 Xposition Yposition Zposition Zrotation Xrotation Yrotation
							End Site
							{
								OFFSET 0.015267 0.059218 0.021494
							}
						}
						JOINT RightEye
						{
							OFFSET -0.015267 0.059218 0.021494
							CHANNELS 6 Xposition Yposition Zposition Zrotation Xrotation Yrotation
							End Site
							{
								OFFSET -0.015267 0.059218 0.021494
							}
						}
					}
				}
				JOINT LeftShoulder
				{
					OFFSET 0.025383 0.124268 0.007699
					CHANNELS 6 Xposition Yposition Zposition Zrotation Xrotation Yrotation
					JOINT LeftUpperArm
					{
						OFFSET 0.136062 0.000000 0.000000
						CHANNELS 6 Xposition Yposition Zposition Zrotation Xrotation Yrotation
						JOINT LeftLowerArm
						{
							OFFSET 0.225446 0.000000 0.000000
							CHANNELS 6 Xposition Yposition Zposition Zrotation Xrotation Yrotation
							JOINT LeftHand
							{
								OFFSET 0.256325 0.000003 0.000015
								CHANNELS 6 Xposition Yposition Zposition Zrotation Xrotation Yrotation
								JOINT LeftIndexProximal
								{
									OFFSET 0.074229 0.008101 0.022282
									CHANNELS 6 Xposition Yposition Zposition Zrotation Xrotation Yrotation
									JOINT LeftIndexIntermediate
									{
										OFFSET 0.037712 0.000000 -0.000001
										CHANNELS 6 Xposition Yposition Zposition Zrotation Xrotation Yrotation
										JOINT LeftIndexDistal
										{
											OFFSET 0.023218 0.000022 0.000021
											CHANNELS 6 Xposition Yposition Zposition Zrotation Xrotation Yrotation
											End Site
											{
												OFFSET 0.023218 0.000022 0.000021
											}
										}
									}
								}
								JOINT LeftLittleProximal
								{
									OFFSET 0.069261 0.008101 -0.033073
									CHANNELS 6 Xposition Yposition Zposition Zrotation Xrotation Yrotation
									JOINT LeftLittleIntermediate
									{
										OFFSET 0.035643 0.000000 0.000000
										CHANNELS 6 Xposition Yposition Zposition Zrotation Xrotation Yrotation
										JOINT LeftLittleDistal
										{
											OFFSET 0.020542 0.000000 0.000000
											CHANNELS 6 Xposition Yposition Zposition Zrotation Xrotation Yrotation
											End Site
											{
												OFFSET 0.020542 0.000000 0.000000
											}
										}
									}
								}
								JOINT LeftMiddleProximal
								{
									OFFSET 0.075240 0.008101 0.002320
									CHANNELS 6 Xposition Yposition Zposition Zrotation Xrotation Yrotation
									JOINT LeftMiddleIntermediate
									{
										OFFSET 0.042007 0.000000 0.000000
										CHANNELS 6 Xposition Yposition Zposition Zrotation Xrotation Yrotation
										JOINT LeftMiddleDistal
										{
											OFFSET 0.025915 0.000000 0.000000
											CHANNELS 6 Xposition Yposition Zposition Zrotation Xrotation Yrotation
											End Site
											{
												OFFSET 0.025915 0.000000 0.000000
											}
										}
									}
								}
								JOINT LeftRingProximal
								{
									OFFSET 0.074383 0.008101 -0.015403
									CHANNELS 6 Xposition Yposition Zposition Zrotation Xrotation Yrotation
									JOINT LeftRingIntermediate
									{
										OFFSET 0.038967 0.000000 0.000000
										CHANNELS 6 Xposition Yposition Zposition Zrotation Xrotation Yrotation
										JOINT LeftRingDistal
										{
											OFFSET 0.022488 0.000000 0.000000
											CHANNELS 6 Xposition Yposition Zposition Zrotation Xrotation Yrotation
											End Site
											{
												OFFSET 0.022488 0.000000 0.000000
											}
										}
									}
								}
								JOINT LeftThumbProximal
								{
									OFFSET 0.003995 -0.010985 0.018096
									CHANNELS 6 Xposition Yposition Zposition Zrotation Xrotation Yrotation
									JOINT LeftThumbIntermediate
									{
										OFFSET 0.052819 -0.000008 -0.000074
										CHANNELS 6 Xposition Yposition Zposition Zrotation Xrotation Yrotation
										JOINT LeftThumbDistal
										{
											OFFSET 0.032489 0.000042 -0.000035
											CHANNELS 6 Xposition Yposition Zposition Zrotation Xrotation Yrotation
											End Site
											{
												OFFSET 0.032489 0.000042 -0.000035
											}
										}
									}
								}
							}
						}
					}
				}
				JOINT RightShoulder
				{
					OFFSET -0.025383 0.124268 0.007699
					CHANNELS 6 Xposition Yposition Zposition Zrotation Xrotation Yrotation
					JOINT RightUpperArm
					{
						OFFSET -0.136062 0.000000 0.000000
						CHANNELS 6 Xposition Yposition Zposition Zrotation Xrotation Yrotation
						JOINT RightLowerArm
						{
							OFFSET -0.225446 0.000000 0.000000
							CHANNELS 6 Xposition Yposition Zposition Zrotation Xrotation Yrotation
							JOINT RightHand
							{
								OFFSET -0.256325 0.000003 0.000015
								CHANNELS 6 Xposition Yposition Zposition Zrotation Xrotation Yrotation
								JOINT RightIndexProximal
								{
									OFFSET -0.074229 0.008101 0.022282
									CHANNELS 6 Xposition Yposition Zposition Zrotation Xrotation Yrotation
									JOINT RightIndexIntermediate
									{
										OFFSET -0.037712 0.000000 -0.000001
										CHANNELS 6 Xposition Yposition Zposition Zrotation Xrotation Yrotation
										JOINT RightIndexDistal
										{
											OFFSET -0.023218 0.000022 0.000021
											CHANNELS 6 Xposition Yposition Zposition Zrotation Xrotation Yrotation
											End Site
											{
												OFFSET -0.023218 0.000022 0.000021
											}
										}
									}
								}
								JOINT RightLittleProximal
								{
									OFFSET -0.069261 0.008101 -0.033073
									CHANNELS 6 Xposition Yposition Zposition Zrotation Xrotation Yrotation
									JOINT RightLittleIntermediate
									{
										OFFSET -0.035643 0.000000 0.000000
										CHANNELS 6 Xposition Yposition Zposition Zrotation Xrotation Yrotation
										JOINT RightLittleDistal
										{
											OFFSET -0.020542 0.000000 0.000000
											CHANNELS 6 Xposition Yposition Zposition Zrotation Xrotation Yrotation
											End Site
											{
												OFFSET -0.020542 0.000000 0.000000
											}
										}
									}
								}
								JOINT RightMiddleProximal
								{
									OFFSET -0.075240 0.008101 0.002320
									CHANNELS 6 Xposition Yposition Zposition Zrotation Xrotation Yrotation
									JOINT RightMiddleIntermediate
									{
										OFFSET -0.042007 0.000000 0.000000
										CHANNELS 6 Xposition Yposition Zposition Zrotation Xrotation Yrotation
										JOINT RightMiddleDistal
										{
											OFFSET -0.025915 0.000000 0.000000
											CHANNELS 6 Xposition Yposition Zposition Zrotation Xrotation Yrotation
											End Site
											{
												OFFSET -0.025915 0.000000 0.000000
											}
										}
									}
								}
								JOINT RightRingProximal
								{
									OFFSET -0.074383 0.008101 -0.015403
									CHANNELS 6 Xposition Yposition Zposition Zrotation Xrotation Yrotation
									JOINT RightRingIntermediate
									{
										OFFSET -0.038967 0.000000 0.000000
										CHANNELS 6 Xposition Yposition Zposition Zrotation Xrotation Yrotation
										JOINT RightRingDistal
										{
											OFFSET -0.022488 0.000000 0.000000
											CHANNELS 6 Xposition Yposition Zposition Zrotation Xrotation Yrotation
											End Site
											{
												OFFSET -0.022488 0.000000 0.000000
											}
										}
									}
								}
								JOINT RightThumbProximal
								{
									OFFSET -0.003995 -0.010985 0.018096
									CHANNELS 6 Xposition Yposition Zposition Zrotation Xrotation Yrotation
									JOINT RightThumbIntermediate
									{
										OFFSET -0.052819 -0.000008 -0.000074
										CHANNELS 6 Xposition Yposition Zposition Zrotation Xrotation Yrotation
										JOINT RightThumbDistal
										{
											OFFSET -0.032489 0.000042 -0.000035
											CHANNELS 6 Xposition Yposition Zposition Zrotation Xrotation Yrotation
											End Site
											{
												OFFSET -0.032489 0.000042 -0.000035
											}
										}
									}
								}
							}
						}
					}
				}
			}
		}
	}
	JOINT LeftUpperLeg
	{
		OFFSET 0.087143 -0.045243 0.001548
		CHANNELS 6 Xposition Yposition Zposition Zrotation Xrotation Yrotation
		JOINT LeftLowerLeg
		{
			OFFSET 0.000000 -0.394432 -0.000001
			CHANNELS 6 Xposition Yposition Zposition Zrotation Xrotation Yrotation
			JOINT LeftFoot
			{
				OFFSET 0.000000 -0.466446 0.003058
				CHANNELS 6 Xposition Yposition Zposition Zrotation Xrotation Yrotation
				JOINT LeftToes
				{
					OFFSET 0.000000 -0.079218 0.140851
					CHANNELS 6 Xposition Yposition Zposition Zrotation Xrotation Yrotation
					End Site
					{
						OFFSET 0.000000 -0.079218 0.140851
					}
				}
			}
		}
	}
	JOINT RightUpperLeg
	{
		OFFSET -0.087143 -0.045243 0.001548
		CHANNELS 6 Xposition Yposition Zposition Zrotation Xrotation Yrotation
		JOINT RightLowerLeg
		{
			OFFSET 0.000000 -0.394432 -0.000001
			CHANNELS 6 Xposition Yposition Zposition Zrotation Xrotation Yrotation
			JOINT RightFoot
			{
				OFFSET 0.000000 -0.466446 0.003058
				CHANNELS 6 Xposition Yposition Zposition Zrotation Xrotation Yrotation
				JOINT RightToes
				{
					OFFSET 0.000000 -0.079218 0.140851
					CHANNELS 6 Xposition Yposition Zposition Zrotation Xrotation Yrotation
					End Site
					{
						OFFSET 0.000000 -0.079218 0.140851
					}
				}
			}
		}
	}
}
MOTION
Frames: 4
Frame Time: 0.041667
-0.000102 1.033211 0.001020 -0.703329 13.581036 14.293427 0.000000 0.059888 0.006665 -2.286863 6.592488 0.787272 0.000000 0.125681 -0.015911 -2.109488 -0.359591 -0.717992 -0.000000 0.122768 -0.001652 -0.000037 -12.397819 -0.000092 -0.000000 0.155865 0.008735 0.565786 16.080825 0.327077 0.000000 0.095969 -0.000410 2.476183 5.397976 2.348616 0.015267 0.059218 0.021494 -1.701132 3.586995 21.747934 -0.015267 0.059218 0.021494 1.701133 3.587007 -21.747923 0.025383 0.124268 0.007699 16.886550 -2.157767 13.795556 0.136062 -0.000000 -0.000000 -94.463941 15.022738 10.704908 0.225446 -0.000000 0.000000 -7.276025 3.900149 -23.495540 0.256325 0.000003 0.000015 -0.844667 31.614405 1.214658 0.074229 0.008101 0.022282 -0.012967 0.667622 1.112106 0.037712 0.000000 -0.000001 -1.679194 1.282861 0.674521 0.023218 0.000022 0.000021 -0.334984 1.286454 -0.710999 0.069261 0.008101 -0.033073 0.000005 -0.000039 0.000001 0.035643 -0.000000 -0.000000 0.000003 -0.000002 0.000001 0.020542 0.000000 -0.000000 0.890203 -0.008564 -1.101172 0.075240 0.008101 0.002320 -0.000001 -0.000007 -0.000007 0.042007 0.000000 -0.000000 0.000003 0.000039 -0.000013 0.025915 -0.000000 0.000000 0.000004 0.000039 -0.000013 0.074383 0.008101 -0.015403 -0.000001 0.000018 0.000003 0.038967 0.000000 0.000000 0.000003 0.000002 0.000000 0.022488 0.000000 -0.000000 -0.712572 -0.008158 1.310729 0.003995 -0.010985 0.018096 86.199487 49.487524 -89.646581 0.052819 -0.000008 -0.000074 -2.573035 -0.739912 0.463019 0.032489 0.000042 -0.000035 4.590283 -0.705068 -0.717110 -0.025383 0.124268 0.007699 10.735940 -2.122674 -14.363027 -0.136062 -0.000000 -0.000000 62.016820 28.778633 7.789780 -0.225446 -0.000000 -0.000000 8.513325 15.890107 20.034173 -0.256325 0.000003 0.000015 -3.150581 29.402445 1.486469 -0.074229 0.008101 0.022282 0.012967 0.667620 -1.112106 -0.037712 0.000000 -0.000001 1.679195 1.282861 -0.674522 -0.023218 0.000022 0.000021 0.334983 1.286454 0.711000 -0.069261 0.008101 -0.033073 -0.000006 -0.000043 -0.000002 -0.035643 -0.000000 0.000000 -0.000002 0.000000 -0.000001 -0.020542 -0.000000 -0.000000 -0.890204 -0.008562 1.101172 -0.075240 0.008101 0.002320 -0.000001 -0.000008 0.000005 -0.042007 0.000000 0.000000 -0.000003 0.000038 0.000012 -0.025915 -0.000000 -0.000000 -0.000003 0.000039 0.000013 -0.074383 0.008101 -0.015403 -0.000001 0.000015 -0.000005 -0.038967 0.000000 -0.000000 -0.000003 0.000001 -0.000000 -0.022488 0.000000 -0.000000 0.712572 -0.008159 -1.310728 -0.003995 -0.010985 0.018096 -86.199433 49.487517 89.646581 -0.052819 -0.000008 -0.000074 2.573039 -0.739911 -0.463022 -0.032489 0.000042 -0.000035 -4.590278 -0.705066 0.717110 0.087143 -0.045243 0.001548 -5.895725 -8.034195 -0.826886 -0.000000 -0.394432 -0.000001 3.605299 20.240181 -1.595910 0.000000 -0.466446 0.003058 3.251453 -12.904416 14.675440 0.000000 -0.079218 0.140851 -0.000001 0.248285 -0.000002 -0.087143 -0.045243 0.001548 -11.117883 -12.842661 -2.501083 0.000000 -0.394432 -0.000001 8.231461 24.680127 -17.613991 -0.000000 -0.466446 0.003058 5.672051 -14.766317 21.785155 -0.000000 -0.079218 0.140851 -0.000000 0.248285 0.000001 
0.000537 1.033648 0.001071 -0.655828 13.597237 14.192153 -0.000000 0.059888 0.006665 -2.398277 6.548875 1.027393 0.000000 0.125681 -0.015911 -2.183644 -0.391607 -0.747172 0.000000 0.122768 -0.001652 -0.000037 -12.397818 -0.000092 -0.000000 0.155865 0.008735 0.630351 16.324089 0.337568 0.000000 0.095969 -0.000410 2.413522 5.141202 2.386267 0.015267 0.059218 0.021494 -1.701128 3.586989 21.747934 -0.015267 0.059218 0.021494 1.701130 3.587001 -21.747920 0.025383 0.124268 0.007699 16.962278 -2.207334 14.145894 0.136062 -0.000000 -0.000000 -93.906338 15.425006 10.669947 0.225446 -0.000000 -0.000000 -7.468687 2.229013 -23.715834 0.256325 0.000003 0.000015 -0.623585 32.091053 1.060249 0.074229 0.008101 0.022282 -0.012965 0.667622 1.112105 0.037712 -0.000000 -0.000001 -1.679196 1.282863 0.674521 0.023218 0.000022 0.000021 -0.334984 1.286452 -0.710999 0.069261 0.008101 -0.033073 0.000006 -0.000041 0.000001 0.035643 0.000000 -0.000000 0.000003 -0.000000 0.000000 0.020542 0.000000 -0.000000 0.890204 -0.008559 -1.101173 0.075240 0.008101 0.002320 0.000000 -0.000007 -0.000006 0.042007 0.000000 -0.000000 0.000003 0.000039 -0.000013 0.025915 -0.000000 0.000000 0.000003 0.000039 -0.000012 0.074383 0.008101 -0.015403 0.000001 0.000014 0.000004 0.038967 0.000000 -0.000000 0.000003 0.000004 -0.000001 0.022488 0.000000 -0.000000 -0.712572 -0.008158 1.310730 0.003995 -0.010985 0.018096 86.199487 49.487521 -89.646574 0.052819 -0.000008 -0.000074 -2.573039 -0.739914 0.463022 0.032489 0.000042 -0.000035 4.590285 -0.705066 -0.717110 -0.025383 0.124268 0.007699 10.610301 -2.173628 -14.681801 -0.136062 -0.000000 -0.000000 61.708177 28.887131 7.934929 -0.225446 -0.000000 -0.000000 8.242711 16.319566 20.079534 -0.256325 0.000003 0.000015 -3.181594 28.632780 0.878690 -0.074229 0.008101 0.022282 0.012969 0.667620 -1.112106 -0.037712 -0.000000 -0.000001 1.679196 1.282861 -0.674522 -0.023218 0.000022 0.000021 0.334983 1.286454 0.710999 -0.069261 0.008101 -0.033073 -0.000004 -0.000043 -0.000001 -0.035643 -0.000000 -0.000000 -0.000001 0.000000 -0.000000 -0.020542 0.000000 -0.000000 -0.890202 -0.008562 1.101173 -0.075240 0.008101 0.002320 -0.000000 -0.000009 0.000006 -0.042007 0.000000 0.000000 -0.000004 0.000038 0.000012 -0.025915 -0.000000 0.000000 -0.000003 0.000039 0.000012 -0.074383 0.008101 -0.015403 0.000000 0.000015 -0.000004 -0.038967 0.000000 0.000000 -0.000002 0.000000 -0.000001 -0.022488 -0.000000 -0.000000 0.712572 -0.008158 -1.310729 -0.003995 -0.010985 0.018096 -86.199433 49.487517 89.646581 -0.052819 -0.000008 -0.000074 2.573045 -0.739909 -0.463021 -0.032489 0.000042 -0.000035 -4.590283 -0.705064 0.717110 0.087143 -0.045243 0.001548 -6.124541 -8.086281 -0.864747 -0.000000 -0.394432 -0.000001 3.674971 20.219686 -1.544366 0.000000 -0.466446 0.003058 3.465262 -13.094154 15.379081 0.000000 -0.079218 0.140851 -0.000000 0.248285 -0.000001 -0.087143 -0.045243 0.001548 -11.312779 -12.794465 -2.536636 -0.000000 -0.394432 -0.000001 8.345099 24.303459 -17.944732 -0.000000 -0.466446 0.003058 5.895082 -15.035060 22.197608 -0.000000 -0.079218 0.140851 0.000002 0.248285 -0.000000 
0.000537 1.033648 0.001071 -0.655828 13.597237 14.192153 -0.000000 0.059888 0.006665 -2.398277 6.548873 1.027393 -0.000000 0.125681 -0.015911 -2.183644 -0.391604 -0.747172 0.000000 0.122768 -0.001652 -0.000036 -12.397808 -0.000091 -0.000000 0.155865 0.008735 0.630350 16.324091 0.337567 -0.000000 0.095969 -0.000410 2.413522 5.141203 2.386265 0.015267 0.059218 0.021494 -1.701130 3.586990 21.747935 -0.015267 0.059218 0.021494 1.701131 3.587003 -21.747923 0.025383 0.124268 0.007699 16.962278 -2.207335 14.145895 0.136062 -0.000000 -0.000000 -93.906317 15.425017 10.669952 0.225446 -0.000000 -0.000000 -7.468733 2.229026 -23.715832 0.256325 0.000003 0.000015 -0.623573 32.091060 1.060260 0.074229 0.008101 0.022282 -0.012965 0.667621 1.112106 0.037712 0.000000 -0.000001 -1.679195 1.282863 0.674522 0.023218 0.000022 0.000021 -0.334984 1.286454 -0.710999 0.069261 0.008101 -0.033073 0.000006 -0.000040 0.000001 0.035643 -0.000000 0.000000 0.000003 -0.000001 0.000001 0.020542 -0.000000 -0.000000 0.890204 -0.008560 -1.101173 0.075240 0.008101 0.002320 0.000001 -0.000004 -0.000006 0.042007 -0.000000 0.000000 0.000003 0.000040 -0.000013 0.025915 0.000000 0.000000 0.000003 0.000038 -0.000012 0.074383 0.008101 -0.015403 0.000001 0.000015 0.000004 0.038967 0.000000 -0.000000 0.000003 -0.000001 0.000000 0.022488 0.000000 -0.000000 -0.712572 -0.008158 1.310730 0.003995 -0.010985 0.018096 86.199494 49.487521 -89.646574 0.052819 -0.000008 -0.000074 -2.573038 -0.739912 0.463018 0.032489 0.000042 -0.000035 4.590284 -0.705065 -0.717111 -0.025383 0.124268 0.007699 10.610301 -2.173629 -14.681806 -0.136062 0.000000 0.000000 61.708150 28.887144 7.934937 -0.225446 -0.000000 -0.000000 8.242712 16.319554 20.079542 -0.256325 0.000003 0.000015 -3.181585 28.632768 0.878669 -0.074229 0.008101 0.022282 0.012967 0.667619 -1.112106 -0.037712 -0.000000 -0.000001 1.679195 1.282862 -0.674522 -0.023218 0.000022 0.000021 0.334981 1.286453 0.710999 -0.069261 0.008101 -0.033073 -0.000006 -0.000043 -0.000001 -0.035643 -0.000000 -0.000000 -0.000002 0.000000 -0.000001 -0.020542 0.000000 0.000000 -0.890203 -0.008561 1.101172 -0.075240 0.008101 0.002320 -0.000002 -0.000008 0.000006 -0.042007 -0.000000 -0.000000 -0.000003 0.000039 0.000012 -0.025915 0.000000 0.000000 -0.000005 0.000040 0.000012 -0.074383 0.008101 -0.015403 -0.000001 0.000014 -0.000004 -0.038967 0.000000 -0.000000 -0.000003 0.000001 0.000000 -0.022488 0.000000 -0.000000 0.712572 -0.008158 -1.310729 -0.003995 -0.010985 0.018096 -86.199433 49.487517 89.646581 -0.052819 -0.000008 -0.000074 2.573041 -0.739911 -0.463021 -0.032489 0.000042 -0.000035 -4.590283 -0.705065 0.717110 0.087143 -0.045243 0.001548 -6.124541 -8.086281 -0.864747 -0.000000 -0.394432 -0.000001 3.674970 20.219684 -1.544366 0.000000 -0.466446 0.003058 3.465261 -13.094154 15.379078 0.000000 -0.079218 0.140851 0.000000 0.248283 -0.000001 -0.087143 -0.045243 0.001548 -11.312779 -12.794465 -2.536636 -0.000000 -0.394432 -0.000001 8.345095 24.303447 -17.944729 0.000000 -0.466446 0.003058 5.895082 -15.035063 22.197609 -0.000000 -0.079218 0.140851 0.000001 0.248287 0.000001 
0.002417 1.034900 0.000891 -0.722311 13.537822 14.192292 -0.000000 0.059888 0.006665 -2.584190 6.541773 1.585379 0.000000 0.125681 -0.015911 -2.282908 -0.370633 -0.783184 -0.000000 0.122768 -0.001652 -0.000038 -12.397804 -0.000089 0.000000 0.155865 0.008735 0.836732 16.695853 0.343607 0.000000 0.095969 -0.000410 2.173679 4.781655 1.869211 0.015267 0.059218 0.021494 -1.701130 3.586996 21.747934 -0.015267 0.059218 0.021494 1.701131 3.587004 -21.747922 0.025383 0.124268 0.007699 17.012632 -2.325206 14.726497 0.136062 -0.000000 -0.000000 -93.040536 16.648917 10.184288 0.225446 -0.000000 0.000000 -7.398728 0.040701 -23.918959 0.256325 0.000003 0.000015 -0.785250 32.385530 1.076897 0.074229 0.008101 0.022282 -0.012968 0.667618 1.112105 0.037712 0.000000 -0.000001 -1.679193 1.282864 0.674521 0.023218 0.000022 0.000021 -0.334984 1.286452 -0.710999 0.069261 0.008101 -0.033073 0.000005 -0.000044 0.000001 0.035643 0.000000 0.000000 0.000003 0.000004 -0.000001 0.020542 0.000000 -0.000000 0.890204 -0.008563 -1.101171 0.075240 0.008101 0.002320 -0.000002 -0.000010 -0.000006 0.042007 -0.000000 0.000000 0.000004 0.000040 -0.000012 0.025915 -0.000000 -0.000000 0.000004 0.000038 -0.000012 0.074383 0.008101 -0.015403 -0.000002 0.000011 0.000004 0.038967 0.000000 0.000000 0.000002 0.000002 0.000000 0.022488 0.000000 0.000000 -0.712571 -0.008157 1.310729 0.003995 -0.010985 0.018096 86.199494 49.487517 -89.646574 0.052819 -0.000008 -0.000074 -2.573040 -0.739916 0.463019 0.032489 0.000042 -0.000035 4.590281 -0.705069 -0.717109 -0.025383 0.124268 0.007699 10.374864 -2.292943 -15.284276 -0.136062 -0.000000 0.000000 61.114572 29.051469 8.161013 -0.225446 -0.000000 -0.000000 8.139543 16.264004 20.064700 -0.256325 0.000003 0.000015 -3.146806 28.527776 1.032893 -0.074229 0.008101 0.022282 0.012967 0.667619 -1.112105 -0.037712 0.000000 -0.000001 1.679194 1.282861 -0.674522 -0.023218 0.000022 0.000021 0.334982 1.286454 0.710999 -0.069261 0.008101 -0.033073 -0.000006 -0.000043 -0.000001 -0.035643 -0.000000 -0.000000 -0.000001 -0.000000 -0.000000 -0.020542 -0.000000 -0.000000 -0.890203 -0.008563 1.101172 -0.075240 0.008101 0.002320 -0.000000 -0.000008 0.000006 -0.042007 -0.000000 0.000000 -0.000003 0.000038 0.000013 -0.025915 -0.000000 -0.000000 -0.000004 0.000037 0.000013 -0.074383 0.008101 -0.015403 0.000000 0.000015 -0.000004 -0.038967 0.000000 -0.000000 -0.000003 0.000001 0.000001 -0.022488 0.000000 -0.000000 0.712570 -0.008158 -1.310729 -0.003995 -0.010985 0.018096 -86.199433 49.487517 89.646581 -0.052819 -0.000008 -0.000074 2.573044 -0.739910 -0.463022 -0.032489 0.000042 -0.000035 -4.590280 -0.705065 0.717111 0.087143 -0.045243 0.001548 -5.984235 -8.273906 -0.864258 -0.000000 -0.394432 -0.000001 3.068949 20.256251 -0.709788 0.000000 -0.466446 0.003058 3.898467 -13.958794 16.181352 0.000000 -0.079218 0.140851 -0.000002 0.248285 0.000002 -0.087143 -0.045243 0.001548 -11.482666 -12.568511 -2.531022 0.000000 -0.394432 -0.000001 8.499738 23.344340 -18.416058 -0.000000 -0.466446 0.003058 6.364828 -16.069997 22.411944 0.000000 -0.079218 0.140851 0.000001 0.248283 -0.000001 
